<svg width="659" height="154" viewBox="0 0 659 154" fill="none" xmlns="http://www.w3.org/2000/svg">
<path fill-rule="evenodd" clip-rule="evenodd" d="M33.1749 58.7549C33.173 56.0682 33.8732 53.3852 35.2492 50.9875L35.2537 50.9802L56.7288 13.7847C61.6564 5.25464 70.7581 0 80.6133 0L129.14 0.0163047C131.287 0.0163047 132.983 1.92848 132.622 4.14139C132.34 5.87694 130.71 7.07805 128.951 7.07714L80.6115 7.06265C73.2799 7.06265 66.5098 10.9703 62.844 17.3156L41.3698 54.512L41.3752 54.5039C40.6161 55.8245 40.2375 57.2911 40.2357 58.7549C40.2375 60.215 40.6089 61.6716 41.3589 62.9796L41.3517 62.9696L61.4454 97.7702C61.6899 98.1941 61.3847 98.7231 60.8955 98.7231H55.2967C54.3882 98.7231 53.5485 98.2385 53.0947 97.4513L35.2365 66.4996L35.2311 66.4887C33.8596 64.0937 33.173 61.4225 33.1749 58.7549ZM39.1548 109.34L39.1594 109.347C40.5489 111.739 42.5208 113.686 44.8497 115.028C47.1568 116.363 49.8145 117.105 52.5745 117.116L52.5881 117.115L88.3216 117.125C89.2293 117.125 90.069 116.641 90.5228 115.854L93.3226 111.006C93.5672 110.583 93.2611 110.053 92.7728 110.053H52.5872L52.5999 110.052C51.0908 110.047 49.646 109.643 48.3788 108.913C47.1124 108.18 46.0309 107.119 45.2673 105.8L45.27 105.809L23.7958 68.6145C20.1336 62.2665 20.1336 54.4484 23.7994 48.0996L47.9838 6.24361C48.8634 4.72184 48.6369 2.70911 47.2746 1.59677C45.539 0.178262 43.0353 0.690048 41.962 2.54969L17.6843 44.5678C12.7566 53.1024 12.7566 63.6117 17.6797 72.1445L39.1548 109.34ZM142.34 94.8127C142.342 97.4993 141.64 100.182 140.265 102.579L140.26 102.587L118.785 139.783C113.857 148.313 104.756 153.568 94.9013 153.568L46.374 153.552C44.2272 153.552 42.5315 151.639 42.892 149.427C43.1737 147.691 44.8033 146.49 46.5615 146.49L94.9031 146.506C102.233 146.505 109.004 142.596 112.67 136.252L134.145 99.0564L134.139 99.0637C134.898 97.743 135.277 96.2756 135.279 94.8127C135.277 93.3516 134.905 91.896 134.155 90.588L114.068 55.7974C113.824 55.3735 114.13 54.8435 114.618 54.8435L120.218 54.8445C121.126 54.8445 121.966 55.3291 122.419 56.1153L140.276 87.0671L140.284 87.0788C141.655 89.4729 142.342 92.146 142.34 94.8127ZM91.6708 135.156L91.6609 135.155H48.7116C38.8608 135.152 29.7592 129.897 24.8316 121.362L0.58194 79.3292C-0.454314 77.5348 0.263093 75.2122 2.20063 74.3381C3.88364 73.5791 5.87553 74.3726 6.79856 75.9731L30.9485 117.833C34.6135 124.182 41.3844 128.091 48.7116 128.093H91.6609L91.6527 128.092C93.1745 128.088 94.6365 127.683 95.9037 126.953C97.1682 126.221 98.2416 125.171 99.0007 123.867L98.9944 123.879L119.087 89.0776C119.332 88.6527 119.943 88.6527 120.189 89.0776L122.987 93.9246C123.441 94.7127 123.441 95.6819 122.987 96.4681L105.11 127.409L105.104 127.421C103.715 129.806 101.744 131.736 99.4337 133.068C97.1075 134.413 94.4354 135.147 91.6708 135.156ZM174.929 74.2468L150.68 32.2142C145.752 23.6787 136.65 18.4232 126.799 18.4214H83.841C81.0755 18.4286 78.4034 19.1632 76.0772 20.5084C73.7665 21.839 71.7954 23.7702 70.4059 26.1543L70.4005 26.167L52.5242 57.1079C52.0695 57.8941 52.0695 58.8643 52.5242 59.6505L55.3232 64.4984C55.5677 64.9224 56.1792 64.9224 56.4237 64.4984L76.5165 29.697L76.5111 29.7088C77.2693 28.4053 78.3427 27.3545 79.6072 26.6226C80.8753 25.8925 82.3355 25.4876 83.8582 25.484L83.8491 25.4831H126.798C134.126 25.4849 140.897 29.3935 144.562 35.7433L168.712 77.6038C169.634 79.2035 171.627 79.996 173.311 79.237C175.249 78.3638 175.965 76.0413 174.929 74.2468ZM136.35 44.1995L136.353 44.2077L157.829 81.4032C162.753 89.936 162.752 100.445 157.824 108.98L133.548 150.997C132.474 152.857 129.97 153.369 128.234 151.951C126.872 150.838 126.646 148.826 127.525 147.303L151.71 105.448C155.374 99.0983 155.375 91.2802 151.713 84.9332L130.243 47.7467C129.477 46.4305 128.397 45.3671 127.13 44.6343C125.864 43.9051 124.418 43.5002 122.909 43.4948H82.7371C82.247 43.4948 81.9418 42.9649 82.1863 42.5419L84.9853 37.6939C85.44 36.9068 86.2797 36.4222 87.1883 36.4222L122.922 36.4321H122.934C125.695 36.443 128.351 37.184 130.66 38.52C132.988 39.8616 134.961 41.8091 136.35 44.1995Z" fill="#FAFAFA"/>
<path fill-rule="evenodd" clip-rule="evenodd" d="M226.651 24.541L272.159 24.5418C286.657 24.5418 301.618 34.3286 301.618 53.4689C301.618 72.6083 286.657 82.5402 272.159 82.5402H269.018L256.946 82.5411V82.5369C255.395 82.5221 254.142 81.2549 254.142 79.6908C254.142 78.1167 255.41 76.8413 256.973 76.8413C257.541 76.8273 268.449 76.7968 269.018 76.7968C282.3 76.7968 286.668 66.5984 286.668 52.9458C286.668 40.0654 280.737 30.2375 269.018 30.2375H250.755C249.898 30.2375 249.203 30.9371 249.203 31.8V119.611C249.203 120.474 249.898 121.172 250.755 121.172H257.692C259.448 121.172 260.832 122.783 260.464 124.616C260.197 125.949 258.969 126.871 257.617 126.871L226.494 126.87L226.486 126.871C224.73 126.871 223.346 125.262 223.714 123.428C223.982 122.095 225.209 121.172 226.561 121.172H233.423C234.28 121.172 234.975 120.473 234.975 119.611V31.8C234.975 30.9371 234.28 30.2383 233.423 30.2383L226.494 30.2391H226.49C224.876 30.2391 223.577 28.8796 223.662 27.237C223.742 25.696 225.117 24.541 226.651 24.541ZM393.931 114.154L393.867 114.192C395.315 113.387 396.655 113.569 397.616 114.875C398.625 116.245 398.332 117.978 396.78 119.048C396.78 119.048 392.18 122.122 387.354 125.001C382.527 127.879 375.113 129.966 369.136 127.636L369.132 127.634L369.125 127.631L369.125 127.631C369.121 127.63 369.117 127.628 369.114 127.627L369.109 127.659C359.898 124.865 358.055 118.37 358.055 105.34L358.054 67.4321C358.054 66.57 357.358 65.8712 356.502 65.8712H349.564C347.949 65.8712 346.651 64.515 346.736 62.8733C346.815 61.3314 348.19 60.1748 349.724 60.1748H369.172C370.888 60.1748 372.279 61.5772 372.276 63.3039L372.306 108.635C372.306 116.423 376.256 120.887 383.265 118.857C386.113 118.031 390.429 116.05 393.931 114.154ZM421.512 121.171H418.931C418.074 121.171 417.38 120.472 417.38 119.609V63.2981C417.38 61.5731 415.99 60.1748 414.275 60.1748H394.821C393.287 60.1748 391.912 61.3314 391.834 62.8733C391.749 64.515 393.047 65.8712 394.662 65.8712H401.599C402.456 65.8712 403.152 66.57 403.152 67.4321V123.747C403.152 125.472 404.542 126.87 406.256 126.87H413.941L413.94 126.871H421.672V126.867C423.286 126.865 424.582 125.507 424.497 123.866C424.418 122.326 423.044 121.171 421.512 121.171ZM333.738 121.172H340.67C342.407 121.172 343.779 122.746 343.454 124.553C343.207 125.929 341.921 126.871 340.532 126.871H317.948L309.458 126.871C307.599 126.871 306.158 125.069 306.768 123.106C307.135 121.927 308.287 121.172 309.515 121.172L316.397 121.173C317.254 121.173 317.949 120.474 317.949 119.612V31.8001C317.949 30.9372 317.254 30.2384 316.397 30.2384L309.468 30.2392L309.464 30.2401C307.727 30.2401 306.356 28.6668 306.68 26.8593C306.927 25.4832 308.214 24.5411 309.603 24.5411L329.073 24.5428C330.787 24.5436 332.176 25.9411 332.176 27.6661L332.191 119.612C332.191 120.474 332.881 121.172 333.738 121.172ZM604.093 82.5379L580.997 82.5387C579.607 82.5387 578.32 83.4817 578.074 84.8578C577.75 86.6645 579.121 88.2369 580.857 88.2369L616.802 88.2336C618.517 88.2336 619.907 86.8402 619.907 85.1151C619.907 84.5956 619.906 84.0246 619.905 83.4121L619.905 82.7431L619.904 82.231C619.883 67.1793 606.29 58.5451 591.087 58.5451C575.884 58.5451 558.848 71.4708 558.848 92.8831C558.848 93.9292 558.881 95.401 558.943 96.405C560.438 120.553 586.127 133.917 607.816 123.469C610.728 122.067 615.007 119.804 617.535 118.189C618.664 117.467 619.586 115.85 618.492 114.172C617.398 112.493 615.786 112.715 614.363 113.484C609.325 116.207 602.009 118.243 596.958 118.243C581.327 118.243 573.079 108.195 573.079 91.1202L573.116 85.4913C574.306 73.0589 581.759 64.2399 591.102 64.2399C600.008 64.2399 605.24 70.235 605.648 80.9111C605.681 81.7971 604.974 82.5379 604.093 82.5379ZM456.866 121.173H463.646C465.179 121.173 466.552 122.328 466.632 123.867C466.716 125.51 465.418 126.868 463.804 126.868L436.847 126.873L436.833 126.865C435.27 126.864 434.004 125.589 434.004 124.017C434.004 122.443 435.271 121.167 436.835 121.167C436.844 121.167 436.853 121.168 436.861 121.17C436.87 121.171 436.879 121.173 436.888 121.173H439.534C440.391 121.173 441.086 120.473 441.086 119.611V67.4354C441.086 66.5733 440.391 65.8737 439.534 65.8737H436.847L435.439 65.1651C434.574 64.7303 433.966 63.8418 434.019 62.8691C434.1 61.3702 435.333 60.1797 436.843 60.1781V60.1748L452.21 60.1764C453.925 60.1764 455.314 61.5748 455.314 63.2998V119.611C455.314 120.473 456.008 121.173 456.866 121.173ZM504.68 121.166C504.672 121.166 504.663 121.168 504.655 121.169C504.646 121.17 504.638 121.172 504.629 121.172H501.993C501.136 121.172 500.441 120.472 500.441 119.61V81.8839L500.434 81.8427C500.434 68.8113 498.112 62.9284 489.381 59.5237C483.404 57.1932 475.99 59.2804 471.163 62.1595C466.337 65.0379 461.737 68.1117 461.737 68.1117C460.185 69.1817 459.892 70.9142 460.901 72.2845C461.862 73.5904 463.203 73.7727 464.65 72.9676L464.586 73.0055C468.088 71.1097 472.404 69.1281 475.252 68.3031C482.261 66.272 486.21 70.736 486.21 78.5246L486.213 80.639L486.21 120.131C486.21 120.706 485.746 121.172 485.175 121.172H482.008C482 121.172 481.991 121.17 481.983 121.169C481.974 121.168 481.966 121.166 481.956 121.166C480.392 121.166 479.124 122.442 479.124 124.016C479.124 125.588 480.391 126.863 481.954 126.864L481.968 126.872H486.213L486.214 126.871H500.439L500.44 126.872H504.684V126.867C505.268 126.867 505.808 126.686 506.258 126.382C506.267 126.375 506.275 126.368 506.283 126.361C506.291 126.355 506.298 126.349 506.305 126.344C506.435 126.252 506.558 126.152 506.67 126.041C506.697 126.014 506.718 125.984 506.743 125.957C506.839 125.854 506.931 125.747 507.011 125.63C507.027 125.607 507.041 125.582 507.055 125.557L507.055 125.556C507.065 125.538 507.076 125.519 507.087 125.501C507.154 125.391 507.219 125.279 507.271 125.16C507.295 125.105 507.311 125.045 507.332 124.988C507.373 124.875 507.412 124.761 507.439 124.642C507.45 124.592 507.457 124.54 507.463 124.488L507.463 124.487C507.466 124.468 507.468 124.449 507.471 124.431C507.475 124.4 507.48 124.371 507.486 124.341C507.496 124.287 507.506 124.233 507.509 124.176C507.51 124.157 507.503 124.136 507.503 124.117C507.503 124.082 507.512 124.05 507.512 124.016C507.512 122.442 506.245 121.166 504.68 121.166ZM549.709 121.169C549.718 121.168 549.727 121.166 549.736 121.166C551.175 121.166 552.35 122.251 552.53 123.649C552.563 123.822 552.583 123.997 552.573 124.176C552.492 125.675 551.259 126.866 549.749 126.867V126.872H545.503V126.871H531.278L531.277 126.872H527.032L527.016 126.863C525.541 126.857 524.346 125.714 524.221 124.261C524.217 124.235 524.215 124.208 524.212 124.181C524.211 124.156 524.208 124.131 524.204 124.107C524.2 124.077 524.196 124.047 524.196 124.016C524.196 123.999 524.198 123.983 524.201 123.967C524.203 123.953 524.205 123.939 524.205 123.925C524.205 123.916 524.205 123.907 524.204 123.898C524.204 123.888 524.203 123.877 524.203 123.867C524.205 123.84 524.21 123.815 524.215 123.789C524.219 123.767 524.223 123.745 524.226 123.722C524.239 123.596 524.253 123.471 524.282 123.35C524.292 123.307 524.308 123.267 524.32 123.226C524.36 123.087 524.404 122.952 524.463 122.823C524.467 122.815 524.472 122.807 524.476 122.799C524.481 122.792 524.485 122.784 524.489 122.776C524.949 121.826 525.907 121.166 527.027 121.166C527.037 121.166 527.045 121.168 527.054 121.169C527.063 121.17 527.071 121.172 527.08 121.172H529.721C530.579 121.172 531.273 120.473 531.273 119.61L531.277 80.639L531.274 78.5246C531.274 70.736 527.324 66.272 520.316 68.3031C517.467 69.1281 513.151 71.1097 509.65 73.0055L509.715 72.9676C508.267 73.7727 506.926 73.5904 505.965 72.2845C504.956 70.9142 505.248 69.1817 506.8 68.1117C506.8 68.1117 511.401 65.0379 516.228 62.1595C521.054 59.2804 528.467 57.1932 534.445 59.5237C543.176 62.9284 545.498 68.8113 545.498 81.8427L545.505 81.8839V119.61C545.505 120.472 546.199 121.172 547.057 121.172H549.684C549.692 121.172 549.701 121.17 549.709 121.169Z" fill="#FAFAFA"/>
<path d="M647.684 59.6147C649.565 59.6147 651.401 60.0999 653.193 61.0701C654.985 62.0304 656.381 63.4114 657.381 65.2132C658.381 67.0052 658.881 68.8763 658.881 70.8266C658.881 72.7571 658.386 74.6134 657.396 76.3954C656.415 78.1774 655.034 79.5634 653.252 80.5534C651.48 81.5335 649.624 82.0236 647.684 82.0236C645.743 82.0236 643.882 81.5335 642.1 80.5534C640.328 79.5634 638.947 78.1774 637.957 76.3954C636.967 74.6134 636.472 72.7571 636.472 70.8266C636.472 68.8763 636.972 67.0052 637.972 65.2132C638.981 63.4114 640.382 62.0304 642.174 61.0701C643.966 60.0999 645.803 59.6147 647.684 59.6147ZM647.684 61.471C646.109 61.471 644.575 61.8769 643.08 62.6887C641.595 63.4906 640.432 64.644 639.59 66.1488C638.749 67.6437 638.328 69.203 638.328 70.8266C638.328 72.4403 638.739 73.9897 639.561 75.4747C640.392 76.9498 641.55 78.1031 643.035 78.9348C644.52 79.7565 646.07 80.1673 647.684 80.1673C649.297 80.1673 650.847 79.7565 652.332 78.9348C653.817 78.1031 654.97 76.9498 655.792 75.4747C656.613 73.9897 657.024 72.4403 657.024 70.8266C657.024 69.203 656.603 67.6437 655.762 66.1488C654.93 64.644 653.767 63.4906 652.272 62.6887C650.777 61.8769 649.248 61.471 647.684 61.471ZM642.768 77.0191V64.9608H646.911C648.327 64.9608 649.352 65.0746 649.985 65.3023C650.619 65.5201 651.124 65.9062 651.5 66.4607C651.876 67.0151 652.064 67.6041 652.064 68.2278C652.064 69.1089 651.748 69.8762 651.114 70.5296C650.49 71.183 649.659 71.5493 648.619 71.6285C649.045 71.8067 649.386 72.0195 649.644 72.267C650.129 72.7423 650.723 73.5392 651.426 74.6579L652.896 77.0191H650.52L649.451 75.1183C648.609 73.6234 647.931 72.6878 647.416 72.3116C647.06 72.0344 646.54 71.8958 645.857 71.8958H644.713V77.0191H642.768ZM644.713 70.2326H647.075C648.203 70.2326 648.971 70.0643 649.376 69.7277C649.792 69.3911 650 68.9456 650 68.3912C650 68.0348 649.901 67.718 649.703 67.4408C649.505 67.1537 649.228 66.9408 648.872 66.8022C648.525 66.6636 647.877 66.5943 646.926 66.5943H644.713V70.2326Z" fill="#FAFAFA"/>
</svg>
